<svg width="64" height="64" viewBox="0 0 64 64" fill="none" xmlns="http://www.w3.org/2000/svg">
  <rect width="64" height="64" rx="18" fill="url(#bg)" />
  <path d="M20 18h24c4.2 0 7.6 3.4 7.6 7.6v10.8c0 4.2-3.4 7.6-7.6 7.6h-9.1L25.6 51v-7H20c-4.2 0-7.6-3.4-7.6-7.6V25.6c0-4.2 3.4-7.6 7.6-7.6Z" fill="white" />
  <path d="M32 37.5s-7.2-4.2-7.2-9.2c0-2.3 1.6-3.9 3.7-3.9 1.5 0 2.7.9 3.5 2.2.8-1.3 2-2.2 3.5-2.2 2.1 0 3.7 1.6 3.7 3.9 0 5-7.2 9.2-7.2 9.2Z" fill="#E9507B" />
  <defs>
    <linearGradient id="bg" x1="9" y1="8" x2="56" y2="58" gradientUnits="userSpaceOnUse">
      <stop stop-color="#FF7A8A" />
      <stop offset="1" stop-color="#B72562" />
    </linearGradient>
  </defs>
</svg>
